<svg id="SvgjsSvg1232" width="937" height="402.6953125" xmlns="http://www.w3.org/2000/svg" version="1.1" xmlns:xlink="http://www.w3.org/1999/xlink" xmlns:svgjs="http://svgjs.com/svgjs"><defs id="SvgjsDefs1233"><pattern patternUnits="userSpaceOnUse" id="pattern_mark_0" width="300" height="300"><text x="150" y="100" fill="rgba(229,229,229,0.8)" font-size="18" transform="rotate(-45, 150, 150)" style="dominant-baseline: middle; text-anchor: middle;"></text></pattern><pattern patternUnits="userSpaceOnUse" id="pattern_mark_1" width="300" height="300"><text x="150" y="200" fill="rgba(229,229,229,0.8)" font-size="18" transform="rotate(-45, 150, 150)" style="dominant-baseline: middle; text-anchor: middle;"></text></pattern><marker id="SvgjsMarker1251" markerWidth="13" markerHeight="9" refX="9.5" refY="4.5" viewBox="0 0 13 9" orient="auto" markerUnits="userSpaceOnUse" stroke-dasharray="0,0"><path id="SvgjsPath1252" d="M0,0 L13,4.5 L0,9 L0,0" fill="#323232" stroke="#323232" stroke-width="1"></path></marker><marker id="SvgjsMarker1271" markerWidth="13" markerHeight="9" refX="9.5" refY="4.5" viewBox="0 0 13 9" orient="auto" markerUnits="userSpaceOnUse" stroke-dasharray="0,0"><path id="SvgjsPath1272" d="M0,0 L13,4.5 L0,9 L0,0" fill="#323232" stroke="#323232" stroke-width="1"></path></marker><marker id="SvgjsMarker1285" markerWidth="13" markerHeight="9" refX="9.5" refY="4.5" viewBox="0 0 13 9" orient="auto" markerUnits="userSpaceOnUse" stroke-dasharray="0,0"><path id="SvgjsPath1286" d="M0,0 L13,4.5 L0,9 L0,0" fill="#323232" stroke="#323232" stroke-width="1"></path></marker><marker id="SvgjsMarker1301" markerWidth="13" markerHeight="9" refX="9.5" refY="4.5" viewBox="0 0 13 9" orient="auto" markerUnits="userSpaceOnUse" stroke-dasharray="0,0"><path id="SvgjsPath1302" d="M0,0 L13,4.5 L0,9 L0,0" fill="#323232" stroke="#323232" stroke-width="1"></path></marker><marker id="SvgjsMarker1309" markerWidth="13" markerHeight="9" refX="9.5" refY="4.5" viewBox="0 0 13 9" orient="auto" markerUnits="userSpaceOnUse" stroke-dasharray="0,0"><path id="SvgjsPath1310" d="M0,0 L13,4.5 L0,9 L0,0" fill="#323232" stroke="#323232" stroke-width="1"></path></marker><marker id="SvgjsMarker1325" markerWidth="13" markerHeight="9" refX="9.5" refY="4.5" viewBox="0 0 13 9" orient="auto" markerUnits="userSpaceOnUse" stroke-dasharray="0,0"><path id="SvgjsPath1326" d="M0,0 L13,4.5 L0,9 L0,0" fill="#323232" stroke="#323232" stroke-width="1"></path></marker><marker id="SvgjsMarker1333" markerWidth="13" markerHeight="9" refX="9.5" refY="4.5" viewBox="0 0 13 9" orient="auto" markerUnits="userSpaceOnUse" stroke-dasharray="0,0"><path id="SvgjsPath1334" d="M0,0 L13,4.5 L0,9 L0,0" fill="#323232" stroke="#323232" stroke-width="1"></path></marker></defs><rect id="svgbackgroundid" width="937" height="402.6953125" fill="transparent"></rect><rect id="SvgjsRect1235" width="937" height="402.6953125" fill="url(#pattern_mark_0)"></rect><rect id="SvgjsRect1236" width="937" height="402.6953125" fill="url(#pattern_mark_1)"></rect><g id="SvgjsG1237" transform="translate(25,54)"><path id="SvgjsPath1238" d="M 0 35C 0 -11.666666666666666 70 -11.666666666666666 70 35C 70 81.66666666666667 0 81.66666666666667 0 35Z" stroke="rgba(33,41,48,1)" stroke-width="1.5" fill-opacity="1" fill="#efeceb"></path><g id="SvgjsG1239"><text id="SvgjsText1240" font-family="微软雅黑" text-anchor="middle" font-size="13px" width="50px" fill="#323232" font-weight="400" align="middle" lineHeight="125%" anchor="middle" family="微软雅黑" size="13px" weight="400" font-style="" opacity="1" y="24.375" transform="rotate(0)"><tspan id="SvgjsTspan1241" dy="16" x="35"><tspan id="SvgjsTspan1242" style="text-decoration:;">加载</tspan></tspan></text></g></g><g id="SvgjsG1243" transform="translate(220,62)"><path id="SvgjsPath1244" d="M 0 0L 96 0L 96 54L 0 54Z" stroke="rgba(33,41,48,1)" stroke-width="1.5" fill-opacity="1" fill="#fbeada"></path><g id="SvgjsG1245"><text id="SvgjsText1246" font-family="微软雅黑" text-anchor="middle" font-size="13px" width="76px" fill="#323232" font-weight="400" align="middle" lineHeight="125%" anchor="middle" family="微软雅黑" size="13px" weight="400" font-style="" opacity="1" y="16.375" transform="rotate(0)"><tspan id="SvgjsTspan1247" dy="16" x="48"><tspan id="SvgjsTspan1248" style="text-decoration:;">解释模式</tspan></tspan></text></g></g><g id="SvgjsG1249"><path id="SvgjsPath1250" d="M95.75 89L157.5 89L157.5 89L217.3 89" stroke="#323232" stroke-width="1.5" fill="none" marker-end="url(#SvgjsMarker1251)"></path><rect id="SvgjsRect1253" width="52" height="16" x="126.14920000000001" y="81" fill="#ffffff"></rect><text id="SvgjsText1254" font-family="微软雅黑" text-anchor="middle" font-size="13px" width="52px" fill="#323232" font-weight="400" align="top" lineHeight="16px" anchor="middle" family="微软雅黑" size="13px" weight="400" font-style="" opacity="1" y="78.375" transform="rotate(0)"><tspan id="SvgjsTspan1255" dy="16" x="152.1492"><tspan id="SvgjsTspan1256" style="text-decoration:;">开始执行</tspan></tspan></text></g><g id="SvgjsG1257" transform="translate(307,25)"><path id="SvgjsPath1258" d="M 0 21.5C 0 -7.166666666666667 86 -7.166666666666667 86 21.5Q 84.28 42.14 43 43Q 28.666666666666668 43 14.333333333333334 38.7L 0 43L 10.062000000000001 36.851Q 0 30.099999999999998 0 21.5" stroke="rgba(33,41,48,1)" stroke-width="1.5" fill-opacity="1" fill="#e7ebed"></path><g id="SvgjsG1259"><text id="SvgjsText1260" font-family="微软雅黑" text-anchor="middle" font-size="13px" width="66px" fill="#323232" font-weight="400" align="middle" lineHeight="125%" anchor="middle" family="微软雅黑" size="13px" weight="400" font-style="" opacity="1" y="10.875" transform="rotate(0)"><tspan id="SvgjsTspan1261" dy="16" x="43"><tspan id="SvgjsTspan1262" style="text-decoration:;">采样分析</tspan></tspan></text></g></g><g id="SvgjsG1263" transform="translate(495,62)"><path id="SvgjsPath1264" d="M 0 0L 96 0L 96 54L 0 54Z" stroke="rgba(33,41,48,1)" stroke-width="1.5" fill-opacity="1" fill="#e5f6da"></path><g id="SvgjsG1265"><text id="SvgjsText1266" font-family="微软雅黑" text-anchor="middle" font-size="13px" width="76px" fill="#323232" font-weight="400" align="middle" lineHeight="125%" anchor="middle" family="微软雅黑" size="13px" weight="400" font-style="" opacity="1" y="16.375" transform="rotate(0)"><tspan id="SvgjsTspan1267" dy="16" x="48"><tspan id="SvgjsTspan1268" style="text-decoration:;">C1</tspan></tspan></text></g></g><g id="SvgjsG1269"><path id="SvgjsPath1270" d="M316.75 89L405.5 89L405.5 89L492.29999999999995 89" stroke="#323232" stroke-width="1.5" fill="none" marker-end="url(#SvgjsMarker1271)"></path><rect id="SvgjsRect1273" width="78" height="16" x="372.88044692737435" y="81" fill="#ffffff"></rect><text id="SvgjsText1274" font-family="微软雅黑" text-anchor="middle" font-size="13px" width="78px" fill="#323232" font-weight="400" align="top" lineHeight="16px" anchor="middle" family="微软雅黑" size="13px" weight="400" font-style="" opacity="1" y="78.375" transform="rotate(0)"><tspan id="SvgjsTspan1275" dy="16" x="411.88044692737435"><tspan id="SvgjsTspan1276" style="text-decoration:;">快速生成代码</tspan></tspan></text></g><g id="SvgjsG1277" transform="translate(816,62)"><path id="SvgjsPath1278" d="M 0 0L 96 0L 96 54L 0 54Z" stroke="rgba(33,41,48,1)" stroke-width="1.5" fill-opacity="1" fill="#caedb4"></path><g id="SvgjsG1279"><text id="SvgjsText1280" font-family="微软雅黑" text-anchor="middle" font-size="13px" width="76px" fill="#323232" font-weight="400" align="middle" lineHeight="125%" anchor="middle" family="微软雅黑" size="13px" weight="400" font-style="" opacity="1" y="16.375" transform="rotate(0)"><tspan id="SvgjsTspan1281" dy="16" x="48"><tspan id="SvgjsTspan1282" style="text-decoration:;">C2</tspan></tspan></text></g></g><g id="SvgjsG1283"><path id="SvgjsPath1284" d="M591.75 89L703.5 89L703.5 89L813.3 89" stroke="#323232" stroke-width="1.5" fill="none" marker-end="url(#SvgjsMarker1285)"></path><rect id="SvgjsRect1287" width="117" height="16" x="630.732" y="81" fill="#ffffff"></rect><text id="SvgjsText1288" font-family="微软雅黑" text-anchor="middle" font-size="13px" width="117px" fill="#323232" font-weight="400" align="top" lineHeight="16px" anchor="middle" family="微软雅黑" size="13px" weight="400" font-style="" opacity="1" y="78.375" transform="rotate(0)"><tspan id="SvgjsTspan1289" dy="16" x="689.232"><tspan id="SvgjsTspan1290" style="text-decoration:;">生成高度优化的代码</tspan></tspan></text></g><g id="SvgjsG1291" transform="translate(607,198)"><path id="SvgjsPath1292" d="M 0 18.75Q 100 -18.75 200 18.75L 200 150L 0 150L 0 18.75Z" stroke="rgba(33,41,48,1)" stroke-width="1.5" fill-opacity="1" fill="#dbf5f5"></path><g id="SvgjsG1293"><text id="SvgjsText1294" font-family="微软雅黑" text-anchor="middle" font-size="13px" width="180px" fill="#323232" font-weight="400" align="middle" lineHeight="125%" anchor="middle" family="微软雅黑" size="13px" weight="400" font-style="" opacity="1" y="55.875" transform="rotate(0)"><tspan id="SvgjsTspan1295" dy="16" x="100"><tspan id="SvgjsTspan1296" style="text-decoration:;">代码缓存池</tspan></tspan><tspan id="SvgjsTspan1297" dy="16" x="100"><tspan id="SvgjsTspan1298" style="text-decoration:;">(Code Cache)</tspan></tspan></text></g></g><g id="SvgjsG1299"><path id="SvgjsPath1300" d="M864 116.75L864 273L809.7 273" stroke="#323232" stroke-width="1.5" fill="none" marker-end="url(#SvgjsMarker1301)"></path><rect id="SvgjsRect1303" width="104" height="16" x="812" y="180.36564625850338" fill="#ffffff"></rect><text id="SvgjsText1304" font-family="微软雅黑" text-anchor="middle" font-size="13px" width="104px" fill="#323232" font-weight="400" align="top" lineHeight="16px" anchor="middle" family="微软雅黑" size="13px" weight="400" font-style="" opacity="1" y="177.74064625850338" transform="rotate(0)"><tspan id="SvgjsTspan1305" dy="16" x="864"><tspan id="SvgjsTspan1306" style="text-decoration:;">编译后的本地代码</tspan></tspan></text></g><g id="SvgjsG1307"><path id="SvgjsPath1308" d="M543 116.75L543 273L604.3 273" stroke="#323232" stroke-width="1.5" fill="none" marker-end="url(#SvgjsMarker1309)"></path><rect id="SvgjsRect1311" width="104" height="16" x="491" y="190.42159468438535" fill="#ffffff"></rect><text id="SvgjsText1312" font-family="微软雅黑" text-anchor="middle" font-size="13px" width="104px" fill="#323232" font-weight="400" align="top" lineHeight="16px" anchor="middle" family="微软雅黑" size="13px" weight="400" font-style="" opacity="1" y="187.79659468438535" transform="rotate(0)"><tspan id="SvgjsTspan1313" dy="16" x="543"><tspan id="SvgjsTspan1314" style="text-decoration:;">编译后的本地代码</tspan></tspan></text></g><g id="SvgjsG1315" transform="translate(218,252)"><path id="SvgjsPath1316" d="M 16.666666666666668 0L 83.33333333333333 0C 105.55555555555556 0 105.55555555555556 50 83.33333333333333 50L 16.666666666666668 50C -5.555555555555556 50 -5.555555555555556 0 16.666666666666668 0Z" stroke="rgba(33,41,48,1)" stroke-width="1.5" fill-opacity="1" fill="#e7ebed"></path><g id="SvgjsG1317"><text id="SvgjsText1318" font-family="微软雅黑" text-anchor="middle" font-size="13px" width="80px" fill="#323232" font-weight="400" align="middle" lineHeight="125%" anchor="middle" family="微软雅黑" size="13px" weight="400" font-style="" opacity="1" y="5.875" transform="rotate(0)"><tspan id="SvgjsTspan1319" dy="16" x="50"><tspan id="SvgjsTspan1320" style="text-decoration:;">逆优化</tspan></tspan><tspan id="SvgjsTspan1321" dy="16" x="50"><tspan id="SvgjsTspan1322" style="text-decoration:;">(Deoptimize)</tspan></tspan></text></g></g><g id="SvgjsG1323"><path id="SvgjsPath1324" d="M707 348.75L707 378L268 378L268 304.7" stroke="#323232" stroke-width="1.5" fill="none" marker-end="url(#SvgjsMarker1325)"></path><rect id="SvgjsRect1327" width="91" height="16" x="449.2882568807339" y="370" fill="#ffffff"></rect><text id="SvgjsText1328" font-family="微软雅黑" text-anchor="middle" font-size="13px" width="91px" fill="#323232" font-weight="400" align="top" lineHeight="16px" anchor="middle" family="微软雅黑" size="13px" weight="400" font-style="" opacity="1" y="367.375" transform="rotate(0)"><tspan id="SvgjsTspan1329" dy="16" x="494.7882568807339"><tspan id="SvgjsTspan1330" style="text-decoration:;">本地代码逆优化</tspan></tspan></text></g><g id="SvgjsG1331"><path id="SvgjsPath1332" d="M268 251.25L268 184L268 184L268 118.69999999999999" stroke="#323232" stroke-width="1.5" fill="none" marker-end="url(#SvgjsMarker1333)"></path><rect id="SvgjsRect1335" width="91" height="16" x="222.5" y="172.1018382352941" fill="#ffffff"></rect><text id="SvgjsText1336" font-family="微软雅黑" text-anchor="middle" font-size="13px" width="91px" fill="#323232" font-weight="400" align="top" lineHeight="16px" anchor="middle" family="微软雅黑" size="13px" weight="400" font-style="" opacity="1" y="169.4768382352941" transform="rotate(0)"><tspan id="SvgjsTspan1337" dy="16" x="268"><tspan id="SvgjsTspan1338" style="text-decoration:;">解释执行与采样</tspan></tspan></text></g><g id="SvgjsG1339" transform="translate(582,25)"><path id="SvgjsPath1340" d="M 0 21.5C 0 -7.166666666666667 86 -7.166666666666667 86 21.5Q 84.28 42.14 43 43Q 28.666666666666668 43 14.333333333333334 38.7L 0 43L 10.062000000000001 36.851Q 0 30.099999999999998 0 21.5" stroke="rgba(33,41,48,1)" stroke-width="1.5" fill-opacity="1" fill="#e7ebed"></path><g id="SvgjsG1341"><text id="SvgjsText1342" font-family="微软雅黑" text-anchor="middle" font-size="13px" width="66px" fill="#323232" font-weight="400" align="middle" lineHeight="125%" anchor="middle" family="微软雅黑" size="13px" weight="400" font-style="" opacity="1" y="10.875" transform="rotate(0)"><tspan id="SvgjsTspan1343" dy="16" x="43"><tspan id="SvgjsTspan1344" style="text-decoration:;">采样分析</tspan></tspan></text></g></g></svg>