<?xml version="1.0" encoding="utf-8"?>
<!-- Generator: Adobe Illustrator 18.0.0, SVG Export Plug-In . SVG Version: 6.00 Build 0)  -->
<!DOCTYPE svg PUBLIC "-//W3C//DTD SVG 1.1//EN" "http://www.w3.org/Graphics/SVG/1.1/DTD/svg11.dtd">
<svg version="1.1" xmlns="http://www.w3.org/2000/svg" xmlns:xlink="http://www.w3.org/1999/xlink" x="0px" y="0px"
	 viewBox="0 0 788.2 287.3" enable-background="new 0 0 788.2 287.3" xml:space="preserve">
<g id="Layer_1">
	<g>
		<path opacity="0.4" fill-rule="evenodd" clip-rule="evenodd" fill="#445DE9" d="M290,73c-8.8,0-16-7.2-16-16V22
			c0-8.8,7.2-16,16-16h212c8.8,0,16,7.2,16,16v35c0,8.8-7.2,16-16,16H290z"/>
		<path opacity="0.6" fill-rule="evenodd" clip-rule="evenodd" fill="#445DE9" d="M290,69c-6.6,0-12-5.4-12-12V22
			c0-6.6,5.4-12,12-12h212c6.6,0,12,5.4,12,12v35c0,6.6-5.4,12-12,12H290z"/>
		<path fill-rule="evenodd" clip-rule="evenodd" fill="#445DE9" d="M502,14H290c-4.4,0-8,3.6-8,8v35c0,4.4,3.6,8,8,8h212
			c4.4,0,8-3.6,8-8V22C510,17.5,506.4,14,502,14z"/>
		<text transform="matrix(1 0 0 1 347.9999 42.9651)" fill="#FFFFFF" font-family="'HelveticaNeue'" font-size="18">Responsive</text>
		<g>
			<path opacity="0.4" fill-rule="evenodd" clip-rule="evenodd" fill="#445DE9" d="M555,177c-8.8,0-16-7.2-16-16v-35
				c0-8.8,7.2-16,16-16h212c8.8,0,16,7.2,16,16v35c0,8.8-7.2,16-16,16H555z"/>
			<path opacity="0.6" fill-rule="evenodd" clip-rule="evenodd" fill="#445DE9" d="M555,173c-6.6,0-12-5.4-12-12v-35
				c0-6.6,5.4-12,12-12h212c6.6,0,12,5.4,12,12v35c0,6.6-5.4,12-12,12H555z"/>
			<path fill-rule="evenodd" clip-rule="evenodd" fill="#445DE9" d="M767,118H555c-4.4,0-8,3.6-8,8v35c0,4.4,3.6,8,8,8h212
				c4.4,0,8-3.6,8-8v-35C775,121.5,771.4,118,767,118z"/>
			<text transform="matrix(1 0 0 1 625.0005 149.2253)" fill="#FFFFFF" font-family="'HelveticaNeue-Medium'" font-size="18">Resilient</text>
		</g>
		<g>
			<path opacity="0.4" fill-rule="evenodd" clip-rule="evenodd" fill="#445DE9" d="M290,282c-8.8,0-16-7.2-16-16v-35
				c0-8.8,7.2-16,16-16h212c8.8,0,16,7.2,16,16v35c0,8.8-7.2,16-16,16H290z"/>
			<path opacity="0.6" fill-rule="evenodd" clip-rule="evenodd" fill="#445DE9" d="M290,278c-6.6,0-12-5.4-12-12v-35
				c0-6.6,5.4-12,12-12h212c6.6,0,12,5.4,12,12v35c0,6.6-5.4,12-12,12H290z"/>
			<path fill-rule="evenodd" clip-rule="evenodd" fill="#445DE9" d="M502,223H290c-4.4,0-8,3.6-8,8v35c0,4.4,3.6,8,8,8h212
				c4.4,0,8-3.6,8-8v-35C510,226.5,506.4,223,502,223z"/>
		</g>
		<text transform="matrix(1 0 0 1 329.11 253.9655)" fill="#FFFFFF" font-family="'HelveticaNeue-Medium'" font-size="18">Message Driven</text>
		<g>
			<path opacity="0.4" fill-rule="evenodd" clip-rule="evenodd" fill="#445DE9" d="M24,177c-8.8,0-16-7.2-16-16v-35
				c0-8.8,7.2-16,16-16h212c8.8,0,16,7.2,16,16v35c0,8.8-7.2,16-16,16H24z"/>
			<path opacity="0.6" fill-rule="evenodd" clip-rule="evenodd" fill="#445DE9" d="M24,173c-6.6,0-12-5.4-12-12v-35
				c0-6.6,5.4-12,12-12h212c6.6,0,12,5.4,12,12v35c0,6.6-5.4,12-12,12H24z"/>
			<path fill-rule="evenodd" clip-rule="evenodd" fill="#445DE9" d="M236,118H24c-4.4,0-8,3.6-8,8v35c0,4.4,3.6,8,8,8h212
				c4.4,0,8-3.6,8-8v-35C244,121.5,240.4,118,236,118z"/>
			<text transform="matrix(1 0 0 1 98.9999 148.965)" fill="#FFFFFF" font-family="'HelveticaNeue-Medium'" font-size="18">Elastic</text>
		</g>
	</g>
</g>
<g id="Layer_2">
	<path fill="none" stroke="#445DE9" stroke-width="1.9399" stroke-miterlimit="10" d="M265.4,46.7c-31.1,7.7-58.2,18.1-79.5,30.4
		c-16.3,9.4-29.2,20-37.9,31.4 M253.4,46.7c3.9,0,7.3,0.1,11.2,0.1c-3.4,1.9-6.3,3.6-9.6,5.6 M149.8,180.7
		c21.3,25.8,63.9,47.2,118.9,60.3 M155.7,191.3c-2-3.5-3.6-6.5-5.3-10c3.3,2.1,6.1,3.8,9.5,5.7 M524.6,240.7
		c53.5-13,95.2-33.8,116.6-58.8 M635.4,192.2c2-3.4,3.7-6.4,5.5-10c-3.3,2.1-6.2,3.8-9.6,5.6 M640.3,104.1
		c-13.8-15.7-35.7-29.8-63.6-41.2c-15-6.2-31.8-11.6-50-16.1 M539,46.8c-3.9,0-7.3,0-11.3,0.1c3.4,2,6.3,3.6,9.6,5.7 M394.5,78v128
		 M391.5,89.6c1.1-3.8,2-7,3-10.8c1.1,3.8,2,7,3,10.8 M273,145h246 M283.9,148c-3.6-1-6.6-1.9-10.2-3c3.6-1,6.6-1.9,10.2-3
		 M508.8,148c3.6-1,6.6-1.9,10.2-3c-3.6-1-6.6-1.9-10.2-3"/>
</g>
</svg>
