<?xml version="1.0" encoding="UTF-8"?>
<!DOCTYPE svg PUBLIC "-//W3C//DTD SVG 1.1//EN" "http://www.w3.org/Graphics/SVG/1.1/DTD/svg11.dtd">
<svg width="157mm" height="85mm" viewBox="0 0 15700 8500" version="1.1" xmlns="http://www.w3.org/2000/svg" xmlns:xlink="http://www.w3.org/1999/xlink" stroke-width="28.222" stroke-linejoin="round" xml:space="preserve">
 <path fill="rgb(255,255,255)" stroke="none" d="M 7860,8497 L 0,8497 0,0 15719,0 15719,8497 7860,8497 Z"/>
 <path fill="none" stroke="rgb(179,179,179)" stroke-linejoin="round" d="M 7315,6700 L 2264,6700 2264,1452 12366,1452 12366,6700 7315,6700 Z"/>
 <path fill="none" stroke="rgb(179,179,179)" stroke-linejoin="round" d="M 12366,6699 L 2264,6699"/>
 <path fill="none" stroke="rgb(179,179,179)" stroke-linejoin="round" d="M 12366,6174 L 2264,6174"/>
 <path fill="none" stroke="rgb(179,179,179)" stroke-linejoin="round" d="M 12366,5649 L 2264,5649"/>
 <path fill="none" stroke="rgb(179,179,179)" stroke-linejoin="round" d="M 12366,5124 L 2264,5124"/>
 <path fill="none" stroke="rgb(179,179,179)" stroke-linejoin="round" d="M 12366,4599 L 2264,4599"/>
 <path fill="none" stroke="rgb(179,179,179)" stroke-linejoin="round" d="M 12366,4075 L 2264,4075"/>
 <path fill="none" stroke="rgb(179,179,179)" stroke-linejoin="round" d="M 12366,3550 L 2264,3550"/>
 <path fill="none" stroke="rgb(179,179,179)" stroke-linejoin="round" d="M 12366,3025 L 2264,3025"/>
 <path fill="none" stroke="rgb(179,179,179)" stroke-linejoin="round" d="M 12366,2500 L 2264,2500"/>
 <path fill="none" stroke="rgb(179,179,179)" stroke-linejoin="round" d="M 12366,1975 L 2264,1975"/>
 <path fill="none" stroke="rgb(179,179,179)" stroke-linejoin="round" d="M 12366,1451 L 2264,1451"/>
 <path fill="none" stroke="rgb(179,179,179)" stroke-linejoin="round" d="M 2264,6849 L 2264,6699"/>
 <path fill="none" stroke="rgb(179,179,179)" stroke-linejoin="round" d="M 2264,6849 L 2264,6699"/>
 <path fill="none" stroke="rgb(179,179,179)" stroke-linejoin="round" d="M 3386,6849 L 3386,6699"/>
 <path fill="none" stroke="rgb(179,179,179)" stroke-linejoin="round" d="M 3386,6849 L 3386,6699"/>
 <path fill="none" stroke="rgb(179,179,179)" stroke-linejoin="round" d="M 4509,6849 L 4509,6699"/>
 <path fill="none" stroke="rgb(179,179,179)" stroke-linejoin="round" d="M 4509,6849 L 4509,6699"/>
 <path fill="none" stroke="rgb(179,179,179)" stroke-linejoin="round" d="M 5631,6849 L 5631,6699"/>
 <path fill="none" stroke="rgb(179,179,179)" stroke-linejoin="round" d="M 5631,6849 L 5631,6699"/>
 <path fill="none" stroke="rgb(179,179,179)" stroke-linejoin="round" d="M 6754,6849 L 6754,6699"/>
 <path fill="none" stroke="rgb(179,179,179)" stroke-linejoin="round" d="M 6754,6849 L 6754,6699"/>
 <path fill="none" stroke="rgb(179,179,179)" stroke-linejoin="round" d="M 7875,6849 L 7875,6699"/>
 <path fill="none" stroke="rgb(179,179,179)" stroke-linejoin="round" d="M 7875,6849 L 7875,6699"/>
 <path fill="none" stroke="rgb(179,179,179)" stroke-linejoin="round" d="M 8998,6849 L 8998,6699"/>
 <path fill="none" stroke="rgb(179,179,179)" stroke-linejoin="round" d="M 8998,6849 L 8998,6699"/>
 <path fill="none" stroke="rgb(179,179,179)" stroke-linejoin="round" d="M 10120,6849 L 10120,6699"/>
 <path fill="none" stroke="rgb(179,179,179)" stroke-linejoin="round" d="M 10120,6849 L 10120,6699"/>
 <path fill="none" stroke="rgb(179,179,179)" stroke-linejoin="round" d="M 11243,6849 L 11243,6699"/>
 <path fill="none" stroke="rgb(179,179,179)" stroke-linejoin="round" d="M 11243,6849 L 11243,6699"/>
 <path fill="none" stroke="rgb(179,179,179)" stroke-linejoin="round" d="M 12366,6849 L 12366,6699"/>
 <path fill="none" stroke="rgb(179,179,179)" stroke-linejoin="round" d="M 12366,6849 L 12366,6699"/>
 <path fill="none" stroke="rgb(179,179,179)" stroke-linejoin="round" d="M 2264,6699 L 12366,6699"/>
 <path fill="none" stroke="rgb(179,179,179)" stroke-linejoin="round" d="M 2114,6699 L 2264,6699"/>
 <path fill="none" stroke="rgb(179,179,179)" stroke-linejoin="round" d="M 2114,6699 L 2264,6699"/>
 <path fill="none" stroke="rgb(179,179,179)" stroke-linejoin="round" d="M 2114,6174 L 2264,6174"/>
 <path fill="none" stroke="rgb(179,179,179)" stroke-linejoin="round" d="M 2114,6174 L 2264,6174"/>
 <path fill="none" stroke="rgb(179,179,179)" stroke-linejoin="round" d="M 2114,5649 L 2264,5649"/>
 <path fill="none" stroke="rgb(179,179,179)" stroke-linejoin="round" d="M 2114,5649 L 2264,5649"/>
 <path fill="none" stroke="rgb(179,179,179)" stroke-linejoin="round" d="M 2114,5124 L 2264,5124"/>
 <path fill="none" stroke="rgb(179,179,179)" stroke-linejoin="round" d="M 2114,5124 L 2264,5124"/>
 <path fill="none" stroke="rgb(179,179,179)" stroke-linejoin="round" d="M 2114,4599 L 2264,4599"/>
 <path fill="none" stroke="rgb(179,179,179)" stroke-linejoin="round" d="M 2114,4599 L 2264,4599"/>
 <path fill="none" stroke="rgb(179,179,179)" stroke-linejoin="round" d="M 2114,4075 L 2264,4075"/>
 <path fill="none" stroke="rgb(179,179,179)" stroke-linejoin="round" d="M 2114,4075 L 2264,4075"/>
 <path fill="none" stroke="rgb(179,179,179)" stroke-linejoin="round" d="M 2114,3550 L 2264,3550"/>
 <path fill="none" stroke="rgb(179,179,179)" stroke-linejoin="round" d="M 2114,3550 L 2264,3550"/>
 <path fill="none" stroke="rgb(179,179,179)" stroke-linejoin="round" d="M 2114,3025 L 2264,3025"/>
 <path fill="none" stroke="rgb(179,179,179)" stroke-linejoin="round" d="M 2114,3025 L 2264,3025"/>
 <path fill="none" stroke="rgb(179,179,179)" stroke-linejoin="round" d="M 2114,2500 L 2264,2500"/>
 <path fill="none" stroke="rgb(179,179,179)" stroke-linejoin="round" d="M 2114,2500 L 2264,2500"/>
 <path fill="none" stroke="rgb(179,179,179)" stroke-linejoin="round" d="M 2114,1975 L 2264,1975"/>
 <path fill="none" stroke="rgb(179,179,179)" stroke-linejoin="round" d="M 2114,1975 L 2264,1975"/>
 <path fill="none" stroke="rgb(179,179,179)" stroke-linejoin="round" d="M 2114,1451 L 2264,1451"/>
 <path fill="none" stroke="rgb(179,179,179)" stroke-linejoin="round" d="M 2114,1451 L 2264,1451"/>
 <path fill="none" stroke="rgb(179,179,179)" stroke-linejoin="round" d="M 2264,6699 L 2264,1451"/>
 <path fill="none" stroke="rgb(0,69,134)" stroke-width="80" stroke-linejoin="round" d="M 2264,5386 L 3386,6042 4509,6370 5631,6534 6754,6452 7875,6452 8998,6432 10120,6432 11243,6514 12366,6606"/>
 <path fill="none" stroke="rgb(255,66,14)" stroke-width="80" stroke-linejoin="round" d="M 2264,1451 L 3386,1451 4509,1451 5631,3911 6754,5304 7875,6001 8998,6186 10120,6329 11243,6514 12366,6606"/>
 <text class="TextShape"><tspan class="TextParagraph" font-family="Liberation Sans, sans-serif" font-size="353px" font-weight="400"><tspan class="TextPosition" x="2171" y="7267"><tspan fill="rgb(0,0,0)" stroke="none">8</tspan></tspan></tspan></text>
 <text class="TextShape"><tspan class="TextParagraph" font-family="Liberation Sans, sans-serif" font-size="353px" font-weight="400"><tspan class="TextPosition" x="3201" y="7267"><tspan fill="rgb(0,0,0)" stroke="none">16</tspan></tspan></tspan></text>
 <text class="TextShape"><tspan class="TextParagraph" font-family="Liberation Sans, sans-serif" font-size="353px" font-weight="400"><tspan class="TextPosition" x="4324" y="7267"><tspan fill="rgb(0,0,0)" stroke="none">32</tspan></tspan></tspan></text>
 <text class="TextShape"><tspan class="TextParagraph" font-family="Liberation Sans, sans-serif" font-size="353px" font-weight="400"><tspan class="TextPosition" x="5446" y="7267"><tspan fill="rgb(0,0,0)" stroke="none">64</tspan></tspan></tspan></text>
 <text class="TextShape"><tspan class="TextParagraph" font-family="Liberation Sans, sans-serif" font-size="353px" font-weight="400"><tspan class="TextPosition" x="6476" y="7267"><tspan fill="rgb(0,0,0)" stroke="none">128</tspan></tspan></tspan></text>
 <text class="TextShape"><tspan class="TextParagraph" font-family="Liberation Sans, sans-serif" font-size="353px" font-weight="400"><tspan class="TextPosition" x="7598" y="7267"><tspan fill="rgb(0,0,0)" stroke="none">256</tspan></tspan></tspan></text>
 <text class="TextShape"><tspan class="TextParagraph" font-family="Liberation Sans, sans-serif" font-size="353px" font-weight="400"><tspan class="TextPosition" x="8721" y="7267"><tspan fill="rgb(0,0,0)" stroke="none">512</tspan></tspan></tspan></text>
 <text class="TextShape"><tspan class="TextParagraph" font-family="Liberation Sans, sans-serif" font-size="353px" font-weight="400"><tspan class="TextPosition" x="9750" y="7267"><tspan fill="rgb(0,0,0)" stroke="none">1024</tspan></tspan></tspan></text>
 <text class="TextShape"><tspan class="TextParagraph" font-family="Liberation Sans, sans-serif" font-size="353px" font-weight="400"><tspan class="TextPosition" x="10873" y="7267"><tspan fill="rgb(0,0,0)" stroke="none">2048</tspan></tspan></tspan></text>
 <text class="TextShape"><tspan class="TextParagraph" font-family="Liberation Sans, sans-serif" font-size="353px" font-weight="400"><tspan class="TextPosition" x="11996" y="7267"><tspan fill="rgb(0,0,0)" stroke="none">4096</tspan></tspan></tspan></text>
 <text class="TextShape"><tspan class="TextParagraph" font-family="Liberation Sans, sans-serif" font-size="353px" font-weight="400"><tspan class="TextPosition" x="1511" y="6820"><tspan fill="rgb(0,0,0)" stroke="none">0%</tspan></tspan></tspan></text>
 <text class="TextShape"><tspan class="TextParagraph" font-family="Liberation Sans, sans-serif" font-size="353px" font-weight="400"><tspan class="TextPosition" x="1326" y="6295"><tspan fill="rgb(0,0,0)" stroke="none">10%</tspan></tspan></tspan></text>
 <text class="TextShape"><tspan class="TextParagraph" font-family="Liberation Sans, sans-serif" font-size="353px" font-weight="400"><tspan class="TextPosition" x="1326" y="5770"><tspan fill="rgb(0,0,0)" stroke="none">20%</tspan></tspan></tspan></text>
 <text class="TextShape"><tspan class="TextParagraph" font-family="Liberation Sans, sans-serif" font-size="353px" font-weight="400"><tspan class="TextPosition" x="1326" y="5245"><tspan fill="rgb(0,0,0)" stroke="none">30%</tspan></tspan></tspan></text>
 <text class="TextShape"><tspan class="TextParagraph" font-family="Liberation Sans, sans-serif" font-size="353px" font-weight="400"><tspan class="TextPosition" x="1326" y="4720"><tspan fill="rgb(0,0,0)" stroke="none">40%</tspan></tspan></tspan></text>
 <text class="TextShape"><tspan class="TextParagraph" font-family="Liberation Sans, sans-serif" font-size="353px" font-weight="400"><tspan class="TextPosition" x="1326" y="4195"><tspan fill="rgb(0,0,0)" stroke="none">50%</tspan></tspan></tspan></text>
 <text class="TextShape"><tspan class="TextParagraph" font-family="Liberation Sans, sans-serif" font-size="353px" font-weight="400"><tspan class="TextPosition" x="1326" y="3670"><tspan fill="rgb(0,0,0)" stroke="none">60%</tspan></tspan></tspan></text>
 <text class="TextShape"><tspan class="TextParagraph" font-family="Liberation Sans, sans-serif" font-size="353px" font-weight="400"><tspan class="TextPosition" x="1326" y="3145"><tspan fill="rgb(0,0,0)" stroke="none">70%</tspan></tspan></tspan></text>
 <text class="TextShape"><tspan class="TextParagraph" font-family="Liberation Sans, sans-serif" font-size="353px" font-weight="400"><tspan class="TextPosition" x="1326" y="2620"><tspan fill="rgb(0,0,0)" stroke="none">80%</tspan></tspan></tspan></text>
 <text class="TextShape"><tspan class="TextParagraph" font-family="Liberation Sans, sans-serif" font-size="353px" font-weight="400"><tspan class="TextPosition" x="1326" y="2095"><tspan fill="rgb(0,0,0)" stroke="none">90%</tspan></tspan></tspan></text>
 <text class="TextShape"><tspan class="TextParagraph" font-family="Liberation Sans, sans-serif" font-size="353px" font-weight="400"><tspan class="TextPosition" x="1141" y="1571"><tspan fill="rgb(0,0,0)" stroke="none">100%</tspan></tspan></tspan></text>
 <text class="TextShape"><tspan class="TextParagraph" font-family="Liberation Sans, sans-serif" font-size="459px" font-weight="400"><tspan class="TextPosition" x="6444" y="840"><tspan fill="rgb(0,0,0)" stroke="none">预留的堆内存比例</tspan></tspan></tspan></text>
 <path fill="none" stroke="rgb(0,69,134)" stroke-width="80" stroke-linejoin="round" d="M 13353,3999 L 14153,3999"/>
 <path fill="none" stroke="rgb(255,66,14)" stroke-width="80" stroke-linejoin="round" d="M 13353,4496 L 14153,4496"/>
 <text class="TextShape"><tspan class="TextParagraph" font-family="Liberation Sans, sans-serif" font-size="353px" font-weight="400"><tspan class="TextPosition" x="14253" y="4119"><tspan fill="rgb(0,0,0)" stroke="none">JDK 14</tspan></tspan></tspan></text>
 <text class="TextShape"><tspan class="TextParagraph" font-family="Liberation Sans, sans-serif" font-size="353px" font-weight="400"><tspan class="TextPosition" x="14253" y="4616"><tspan fill="rgb(0,0,0)" stroke="none">JDK 13</tspan></tspan></tspan></text>
 <text class="TextShape"><tspan class="TextParagraph" font-family="Liberation Sans, sans-serif" font-size="318px" font-weight="400"><tspan class="TextPosition" x="5986" y="7903"><tspan fill="rgb(0,0,0)" stroke="none">堆内存总大小 (MB)</tspan></tspan></tspan></text>
 <text class="TextShape" transform="rotate(-90 837 5635)"><tspan class="TextParagraph" font-family="Liberation Sans, sans-serif" font-size="318px" font-weight="400"><tspan class="TextPosition" x="837" y="5635"><tspan fill="rgb(0,0,0)" stroke="none">预留的堆内存 (%)</tspan></tspan></tspan></text>
</svg>