<?xml version="1.0" encoding="UTF-8"?>
<!DOCTYPE svg PUBLIC "-//W3C//DTD SVG 1.1//EN" "http://www.w3.org/Graphics/SVG/1.1/DTD/svg11.dtd">
<svg width="211mm" height="128mm" viewBox="0 0 21100 12800" version="1.1" xmlns="http://www.w3.org/2000/svg" xmlns:xlink="http://www.w3.org/1999/xlink" stroke-width="28.222" stroke-linejoin="round" xml:space="preserve">
 <path fill="rgb(255,255,255)" stroke="none" d="M 10554,12839 L 0,12839 0,0 21107,0 21107,12839 10554,12839 Z"/>
 <path fill="none" stroke="rgb(179,179,179)" stroke-linejoin="round" d="M 10036,12384 L 1869,12384 1869,1627 18203,1627 18203,12384 10036,12384 Z"/>
 <path fill="none" stroke="rgb(179,179,179)" stroke-linejoin="round" d="M 18203,12383 L 1869,12383"/>
 <path fill="none" stroke="rgb(179,179,179)" stroke-linejoin="round" d="M 18203,10231 L 1869,10231"/>
 <path fill="none" stroke="rgb(179,179,179)" stroke-linejoin="round" d="M 18203,8079 L 1869,8079"/>
 <path fill="none" stroke="rgb(179,179,179)" stroke-linejoin="round" d="M 18203,5929 L 1869,5929"/>
 <path fill="none" stroke="rgb(179,179,179)" stroke-linejoin="round" d="M 18203,3777 L 1869,3777"/>
 <path fill="none" stroke="rgb(179,179,179)" stroke-linejoin="round" d="M 18203,1625 L 1869,1625"/>
 <path fill="none" stroke="rgb(179,179,179)" stroke-linejoin="round" d="M 1719,12383 L 1869,12383"/>
 <path fill="none" stroke="rgb(179,179,179)" stroke-linejoin="round" d="M 1719,12383 L 1869,12383"/>
 <path fill="none" stroke="rgb(179,179,179)" stroke-linejoin="round" d="M 1719,10231 L 1869,10231"/>
 <path fill="none" stroke="rgb(179,179,179)" stroke-linejoin="round" d="M 1719,10231 L 1869,10231"/>
 <path fill="none" stroke="rgb(179,179,179)" stroke-linejoin="round" d="M 1719,8079 L 1869,8079"/>
 <path fill="none" stroke="rgb(179,179,179)" stroke-linejoin="round" d="M 1719,8079 L 1869,8079"/>
 <path fill="none" stroke="rgb(179,179,179)" stroke-linejoin="round" d="M 1719,5929 L 1869,5929"/>
 <path fill="none" stroke="rgb(179,179,179)" stroke-linejoin="round" d="M 1719,5929 L 1869,5929"/>
 <path fill="none" stroke="rgb(179,179,179)" stroke-linejoin="round" d="M 1719,3777 L 1869,3777"/>
 <path fill="none" stroke="rgb(179,179,179)" stroke-linejoin="round" d="M 1719,3777 L 1869,3777"/>
 <path fill="none" stroke="rgb(179,179,179)" stroke-linejoin="round" d="M 1719,1625 L 1869,1625"/>
 <path fill="none" stroke="rgb(179,179,179)" stroke-linejoin="round" d="M 1719,1625 L 1869,1625"/>
 <path fill="none" stroke="rgb(179,179,179)" stroke-linejoin="round" d="M 1869,12383 L 1869,1625"/>
 <path fill="none" stroke="rgb(255,56,56)" stroke-width="51" stroke-linejoin="round" d="M 1869,3777 L 1909,3777 1950,3777 1990,3777 2031,3777 2072,3777 2112,3777 2153,3777 2194,3777 2234,3777 2275,3777 2315,3777 2356,3777 2397,3777 2437,3777 2478,3777 2519,3777 2559,3777 2600,3777 2641,3777 2681,3777 2722,3777 2762,3777 2803,3777 2844,3777 2884,3777 2925,3777 2966,3777 3006,3777 3047,3777 3088,3777 3128,3777 3169,3777 3209,3777 3250,3777 3291,3777 3331,3777 3372,3777 3413,3777 3453,3777 3494,3777 3535,3777 3575,3777 3616,3777 3656,3777 3697,3777 3738,3777 3778,3777 3819,3777 3860,3777 3900,3777 3941,3777 3981,3777 4022,3777 4063,3777 4103,3777 4144,3777 4185,3777 4225,3777 4266,3777 4307,3777 4347,3777 4388,3777 4428,3777 4469,3777 4510,3777 4550,3777 4591,3777 4632,3777 4672,3777 4713,3777 4754,3777 4794,3777 4835,3777 4875,3777 4916,3777 4957,3777 4997,3777 5038,3777 5079,3777 5119,3777 5160,3777 5201,3777 5241,3777 5282,3777 5322,3777 5363,3777 5404,3777 5444,3777 5485,3777 5526,3777 5566,3777 5607,3777 5647,3777 5688,3777 5729,3777 5769,3777 5810,3777 5851,3777 5891,3777 5932,3777 5973,3777 6013,3777 6054,3777 6094,3777 6135,3777 6176,3777 6216,3777 6257,3777 6298,3777 6338,3777 6379,3777 6420,3777 6460,3777 6501,3777 6541,3777 6582,3777 6623,3777 6663,3777 6704,3777 6745,3777 6785,3777 6826,3777 6867,3777 6907,3777 6948,3777 6988,3777 7029,3777 7070,3777 7110,3777 7151,3777 7192,3777 7232,3777 7273,3777 7314,3777 7354,3777 7395,3777 7435,3777 7476,3777 7517,3777 7557,3777 7598,3777 7639,3777 7679,3777 7720,3777 7760,3777 7801,3777 7842,3777 7882,3777 7923,3777 7964,3777 8004,3777 8045,3777 8086,3777 8126,3777 8167,3777 8207,3777 8248,3777 8289,3777 8329,3777 8370,3777 8411,3777 8451,3777 8492,3777 8533,3777 8573,3777 8614,3777 8654,3777 8695,3777 8736,3777 8776,3777 8817,3777 8858,3777 8898,3777 8939,3777 8980,3777 9020,3777 9061,3777 9101,3777 9142,3777 9183,3777 9223,3777 9264,3777 9305,3777 9345,3777 9386,3777 9426,3777 9467,3777 9508,3777 9548,3777 9589,3777 9630,3777 9670,3777 9711,3777 9752,3777 9792,3777 9833,3777 9873,3777 9914,3777 9955,3777 9995,3777 10036,3777 10077,3777 10117,3777 10158,3777 10199,3777 10239,3777 10280,3777 10320,3777 10361,3777 10402,3777 10442,3777 10483,3777 10524,3777 10563,3777 10604,3777 10645,3777 10685,3777 10726,3777 10766,3777 10807,3777 10848,3777 10888,3777 10929,3777 10970,3777 11010,3777 11051,3777 11091,3777 11132,3777 11173,3777 11213,3777 11254,3777 11295,3777 11335,3777 11376,3777 11417,3777 11457,3777 11498,3777 11538,3777 11579,3777 11620,3777 11660,3777 11701,3777 11742,3777 11782,3777 11823,3777 11864,3777 11904,3777 11945,3777 11985,3777 12026,3777 12067,3777 12107,3777 12148,3777 12189,3777 12229,3777 12270,3777 12311,3777 12351,3777 12392,3777 12432,3777 12473,3777 12514,3777 12554,3777 12595,3777 12636,3777 12676,3777 12717,3777 12758,3777 12798,3777 12839,3777 12879,3777 12920,3777 12961,3777 13001,3777 13042,3777 13083,3777 13123,3777 13164,3777 13204,3777 13245,3777 13286,3777 13326,3777 13367,3777 13408,3777 13448,3777 13489,3777 13530,3777 13570,3777 13611,3777 13651,3777 13692,3777 13733,3777 13773,3777 13814,3777 13855,3777 13895,3777 13936,3777 13977,3777 14017,3777 14058,3777 14098,3777 14139,3777 14180,3777 14220,3777 14261,3777 14302,3777 14342,3777 14383,3777 14424,3777 14464,3777 14505,3777 14545,3777 14586,3777 14627,3777 14667,3777 14708,3777 14749,3777 14789,3777 14830,3777 14870,3777 14911,3777 14952,3777 14992,3777 15033,3777 15074,3777 15114,3777 15155,3777 15196,3777 15236,3777 15277,3777 15317,3777 15358,3777 15399,3777 15439,3777 15480,3777 15521,3777 15561,3777 15602,3777 15643,3777 15683,3777 15724,3777 15764,3777 15805,3777 15846,3777 15886,3777 15927,3777 15968,3777 16008,3777 16049,3777 16090,3777 16130,3777 16171,3777 16211,3777 16252,3777 16293,3777 16333,3777 16374,3777 16415,3777 16455,3777 16496,3777 16536,3777 16577,3777 16618,3777 16658,3777 16699,3777 16740,3777 16780,3777 16821,3777 16862,3777 16902,3777 16943,3777 16983,3777 17024,3777 17065,3777 17105,3777 17146,3777 17187,3777 17227,3777 17268,3777 17309,3777 17349,3777 17390,3777 17430,3777 17471,3777 17512,3777 17552,3777 17593,3777 17634,3777 17674,3777 17715,3777 17756,3777 17796,3777 17837,3777 17877,3777 17918,3777 17959,3777 17999,3777 18040,3777 18081,3777 18121,3777 18162,3777 18203,3777"/>
 <path fill="none" stroke="rgb(0,147,217)" stroke-width="51" stroke-linejoin="round" d="M 1869,10231 L 1909,8079 1950,8079 1990,8079 2031,8079 2072,5929 2112,3777 2153,5929 2194,5929 2234,8079 2275,3777 2315,10231 2356,8079 2397,8079 2437,5929 2478,8079 2519,8079 2559,5929 2600,5929 2641,8079 2681,5929 2722,8079 2762,8079 2803,8079 2844,8079 2884,8079 2925,8079 2966,8079 3006,8079 3047,5929 3088,5929 3128,3777 3169,5929 3209,8079 3250,5929 3291,3777 3331,5929 3372,10231 3413,8079 3453,3777 3494,10231 3535,10231 3575,12383 3616,10231 3656,12383 3697,10231 3738,8079 3778,12383 3819,12383 3860,10231 3900,10231 3941,8079 3981,12383 4022,12383 4063,12383 4103,10231 4144,10231 4185,12383 4225,12383 4266,12383 4307,12383 4347,10231 4388,12383 4428,12383 4469,12383 4510,12383 4550,10231 4591,12383 4632,12383 4672,12383 4713,10231 4754,12383 4794,10231 4835,10231 4875,12383 4916,10231 4957,12383 4997,10231 5038,12383 5079,12383 5119,12383 5160,12383 5201,12383 5241,10231 5282,12383 5322,10231 5363,10231 5404,12383 5444,12383 5485,10231 5526,12383 5566,10231 5607,10231 5647,8079 5688,12383 5729,12383 5769,12383 5810,12383 5851,10231 5891,12383 5932,10231 5973,12383 6013,10231 6054,10231 6094,12383 6135,12383 6176,10231 6216,12383 6257,12383 6298,12383 6338,10231 6379,12383 6420,12383 6460,10231 6501,12383 6541,12383 6582,10231 6623,12383 6663,10231 6704,12383 6745,10231 6785,8079 6826,10231 6867,10231 6907,10231 6948,12383 6988,10231 7029,12383 7070,10231 7110,10231 7151,12383 7192,12383 7232,12383 7273,12383 7314,12383 7354,10231 7395,12383 7435,10231 7476,12383 7517,10231 7557,12383 7598,12383 7639,10231 7679,10231 7720,12383 7760,10231 7801,10231 7842,8079 7882,10231 7923,10231 7964,10231 8004,10231 8045,8079 8086,10231 8126,10231 8167,10231 8207,10231 8248,10231 8289,10231 8329,8079 8370,10231 8411,8079 8451,10231 8492,8079 8533,10231 8573,10231 8614,8079 8654,10231 8695,10231 8736,10231 8776,8079 8817,10231 8858,10231 8898,10231 8939,8079 8980,8079 9020,10231 9061,10231 9101,10231 9142,8079 9183,10231 9223,10231 9264,10231 9305,10231 9345,10231 9386,10231 9426,10231 9467,10231 9508,8079 9548,8079 9589,10231 9630,8079 9670,10231 9711,10231 9752,10231 9792,10231 9833,8079 9873,10231 9914,10231 9955,10231 9995,10231 10036,10231 10077,8079 10117,10231 10158,8079 10199,10231 10239,8079 10280,10231 10320,10231 10361,10231 10402,10231 10442,10231 10483,8079 10524,10231 10563,10231 10604,10231 10645,10231 10685,10231 10726,10231 10766,10231 10807,10231 10848,10231 10888,10231 10929,10231 10970,8079 11010,10231 11051,10231 11091,8079 11132,8079 11173,10231 11213,8079 11254,10231 11295,8079 11335,10231 11376,10231 11417,10231 11457,10231 11498,10231 11538,10231 11579,10231 11620,10231 11660,10231 11701,8079 11742,8079 11782,10231 11823,10231 11864,8079 11904,8079 11945,10231 11985,10231 12026,10231 12067,10231 12107,10231 12148,10231 12189,10231 12229,10231 12270,8079 12311,10231 12351,10231 12392,10231 12432,8079 12473,10231 12514,8079 12554,10231 12595,10231 12636,10231 12676,8079 12717,10231 12758,8079 12798,8079 12839,10231 12879,8079 12920,8079 12961,10231 13001,10231 13042,10231 13083,10231 13123,10231 13164,10231 13204,10231 13245,8079 13286,10231 13326,10231 13367,10231 13408,10231 13448,10231 13489,8079 13530,10231 13570,10231 13611,10231 13651,10231 13692,10231 13733,10231 13773,10231 13814,8079 13855,10231 13895,8079 13936,8079 13977,8079 14017,8079 14058,8079 14098,8079 14139,8079 14180,5929 14220,10231 14261,8079 14302,8079 14342,8079 14383,8079 14424,8079 14464,8079 14505,5929 14545,8079 14586,8079 14627,5929 14667,5929 14708,5929 14749,5929 14789,8079 14830,8079 14870,5929 14911,5929 14952,3777 14992,8079 15033,8079 15074,8079 15114,8079 15155,5929 15196,8079 15236,5929 15277,8079 15317,8079 15358,8079 15399,8079 15439,5929 15480,5929 15521,8079 15561,8079 15602,8079 15643,5929 15683,8079 15724,8079 15764,8079 15805,8079 15846,8079 15886,8079 15927,8079 15968,8079 16008,8079 16049,5929 16090,8079 16130,8079 16171,8079 16211,8079 16252,8079 16293,5929 16333,5929 16374,3777 16415,3777 16455,5929 16496,5929 16536,5929 16577,8079 16618,8079 16658,5929 16699,5929 16740,8079 16780,5929 16821,8079 16862,8079 16902,8079 16943,5929 16983,8079 17024,8079 17065,5929 17105,5929 17146,5929 17187,8079 17227,8079 17268,8079 17309,8079 17349,8079 17390,8079 17430,5929 17471,8079 17512,8079 17552,8079 17593,5929 17634,5929 17674,8079 17715,8079 17756,5929 17796,8079 17837,5929 17877,5929 17918,3777 17959,3777 17999,10231 18040,10231 18081,10231 18121,10231 18162,10231 18203,3777"/>
 <text class="TextShape"><tspan class="TextParagraph" font-family="Liberation Sans, sans-serif" font-size="353px" font-weight="400"><tspan class="TextPosition" x="1434" y="12504"><tspan fill="rgb(0,0,0)" stroke="none">1</tspan></tspan></tspan></text>
 <text class="TextShape"><tspan class="TextParagraph" font-family="Liberation Sans, sans-serif" font-size="353px" font-weight="400"><tspan class="TextPosition" x="1434" y="10352"><tspan fill="rgb(0,0,0)" stroke="none">2</tspan></tspan></tspan></text>
 <text class="TextShape"><tspan class="TextParagraph" font-family="Liberation Sans, sans-serif" font-size="353px" font-weight="400"><tspan class="TextPosition" x="1434" y="8200"><tspan fill="rgb(0,0,0)" stroke="none">3</tspan></tspan></tspan></text>
 <text class="TextShape"><tspan class="TextParagraph" font-family="Liberation Sans, sans-serif" font-size="353px" font-weight="400"><tspan class="TextPosition" x="1434" y="6049"><tspan fill="rgb(0,0,0)" stroke="none">4</tspan></tspan></tspan></text>
 <text class="TextShape"><tspan class="TextParagraph" font-family="Liberation Sans, sans-serif" font-size="353px" font-weight="400"><tspan class="TextPosition" x="1434" y="3897"><tspan fill="rgb(0,0,0)" stroke="none">5</tspan></tspan></tspan></text>
 <text class="TextShape"><tspan class="TextParagraph" font-family="Liberation Sans, sans-serif" font-size="353px" font-weight="400"><tspan class="TextPosition" x="1434" y="1745"><tspan fill="rgb(0,0,0)" stroke="none">6</tspan></tspan></tspan></text>
 <text class="TextShape"><tspan class="TextParagraph" font-family="Liberation Sans, sans-serif" font-size="459px" font-weight="400"><tspan class="TextPosition" x="5765" y="927"><tspan fill="rgb(0,0,0)" stroke="none">SPECjbb2015 - Number of threads used by ZGC</tspan></tspan></tspan></text>
 <path fill="none" stroke="rgb(255,56,56)" stroke-width="51" stroke-linejoin="round" d="M 18741,6170 L 19541,6170"/>
 <path fill="none" stroke="rgb(0,147,217)" stroke-width="51" stroke-linejoin="round" d="M 18741,6667 L 19541,6667"/>
 <text class="TextShape"><tspan class="TextParagraph" font-family="Liberation Sans, sans-serif" font-size="353px" font-weight="400"><tspan class="TextPosition" x="19641" y="6290"><tspan fill="rgb(0,0,0)" stroke="none">JDK 16</tspan></tspan></tspan></text>
 <text class="TextShape"><tspan class="TextParagraph" font-family="Liberation Sans, sans-serif" font-size="353px" font-weight="400"><tspan class="TextPosition" x="19641" y="6787"><tspan fill="rgb(0,0,0)" stroke="none">JDK 17</tspan></tspan></tspan></text>
 <text class="TextShape" transform="rotate(-90 837 8671)"><tspan class="TextParagraph" font-family="Liberation Sans, sans-serif" font-size="318px" font-weight="400"><tspan class="TextPosition" x="837" y="8671"><tspan fill="rgb(0,0,0)" stroke="none">Number of GC Threads</tspan></tspan></tspan></text>
</svg>